<svg width="16" height="16" viewBox="0 0 16 16" fill="none" xmlns="http://www.w3.org/2000/svg">
<path d="M6.44444 15V14.4072V15ZM5.66667 15V15.5928V15ZM1 10.3333H1.59282H1ZM1 5.66667H0.407184H1ZM5.66667 1V0.407184V1ZM6.44444 1V1.59282V1ZM1.04788 4.28053L0.462361 4.1878L0.462361 4.1878L1.04788 4.28053ZM4.28053 1.04788L4.37327 1.6334L4.28053 1.04788ZM4.28053 14.9521L4.1878 15.5376H4.1878L4.28053 14.9521ZM1.04788 11.7195L0.462361 11.8122L0.462361 11.8122L1.04788 11.7195ZM9.13381 14.6965C9.39559 14.4999 9.4484 14.1283 9.25177 13.8665C9.05514 13.6047 8.68353 13.5519 8.42175 13.7485L9.13381 14.6965ZM8.42175 2.25149C8.68353 2.44812 9.05514 2.39531 9.25177 2.13353C9.44841 1.87174 9.39559 1.50013 9.13381 1.3035L8.42175 2.25149ZM4.11111 7.40718C3.78371 7.40718 3.5183 7.6726 3.5183 8C3.5183 8.3274 3.78371 8.59281 4.11111 8.59282V7.40718ZM14.2222 8V8.59282V8ZM12.2572 4.42437C12.0007 4.22096 11.6278 4.26403 11.4244 4.52058C11.221 4.77712 11.264 5.14999 11.5206 5.35341L12.2572 4.42437ZM13.2601 5.9761L13.6284 5.51159L13.2601 5.9761ZM13.2601 10.0239L13.6284 10.4884V10.4884L13.2601 10.0239ZM11.5206 10.6466C11.264 10.85 11.221 11.2229 11.4244 11.4794C11.6278 11.736 12.0007 11.779 12.2572 11.5756L11.5206 10.6466ZM14.9845 7.80504L15.57 7.71176V7.71176L14.9845 7.80504ZM14.9845 8.19496L15.57 8.28824V8.28824L14.9845 8.19496ZM15 8H15.5928H15ZM6.44444 14.4072H5.66667V15.5928H6.44444V14.4072ZM1.59282 10.3333L1.59282 5.66667H0.407184L0.407184 10.3333L1.59282 10.3333ZM5.66667 1.59282L6.44444 1.59282V0.407184L5.66667 0.407184V1.59282ZM1.59282 5.66667C1.59282 4.92145 1.59466 4.61787 1.6334 4.37327L0.462361 4.1878C0.405345 4.54779 0.407184 4.96676 0.407184 5.66667H1.59282ZM5.66667 0.407184C4.96676 0.407184 4.54779 0.405344 4.1878 0.462361L4.37327 1.6334C4.61787 1.59466 4.92145 1.59282 5.66667 1.59282V0.407184ZM1.6334 4.37327C1.85678 2.9629 2.9629 1.85678 4.37327 1.6334L4.1878 0.462361C2.27011 0.766093 0.766093 2.27011 0.462361 4.1878L1.6334 4.37327ZM5.66667 14.4072C4.92145 14.4072 4.61787 14.4053 4.37327 14.3666L4.1878 15.5376C4.54779 15.5947 4.96676 15.5928 5.66667 15.5928V14.4072ZM0.407184 10.3333C0.407184 11.0332 0.405344 11.4522 0.462361 11.8122L1.6334 11.6267C1.59466 11.3821 1.59282 11.0785 1.59282 10.3333L0.407184 10.3333ZM4.37327 14.3666C2.9629 14.1432 1.85678 13.0371 1.6334 11.6267L0.462361 11.8122C0.766093 13.7299 2.27011 15.2339 4.1878 15.5376L4.37327 14.3666ZM6.44444 15.5928C7.45269 15.5928 8.38472 15.2592 9.13381 14.6965L8.42175 13.7485C7.87092 14.1623 7.18714 14.4072 6.44444 14.4072V15.5928ZM6.44444 1.59282C7.18714 1.59282 7.87092 1.83775 8.42175 2.25149L9.13381 1.3035C8.38472 0.740832 7.45269 0.407184 6.44444 0.407184V1.59282ZM4.11111 8.59282L14.2222 8.59282V7.40719L4.11111 7.40718V8.59282ZM11.5206 5.35341L12.8918 6.44062L13.6284 5.51159L12.2572 4.42437L11.5206 5.35341ZM12.8918 9.55938L11.5206 10.6466L12.2572 11.5756L13.6284 10.4884L12.8918 9.55938ZM12.8918 6.44062C13.4499 6.88313 13.828 7.18412 14.0824 7.43755C14.3342 7.68835 14.3864 7.81868 14.3991 7.89831L15.57 7.71176C15.4985 7.26301 15.2352 6.91239 14.9192 6.59757C14.6058 6.28539 14.1638 5.9361 13.6284 5.51159L12.8918 6.44062ZM13.6284 10.4884C14.1638 10.0639 14.6058 9.71461 14.9192 9.40243C15.2352 9.08761 15.4985 8.73699 15.57 8.28824L14.3991 8.10169C14.3864 8.18132 14.3342 8.31165 14.0824 8.56245C13.828 8.81588 13.4499 9.11687 12.8918 9.55938L13.6284 10.4884ZM14.3991 7.89831C14.4045 7.93231 14.4072 7.96624 14.4072 8L15.5928 8C15.5928 7.90353 15.5852 7.80723 15.57 7.71176L14.3991 7.89831ZM14.4072 8C14.4072 8.03376 14.4045 8.06769 14.3991 8.10169L15.57 8.28824C15.5852 8.19277 15.5928 8.09647 15.5928 8L14.4072 8ZM14.2222 8.59282H15V7.40719H14.2222V8.59282Z" fill="#73C5C5"/>
</svg>
