<svg width="19" height="19" viewBox="0 0 19 19" fill="none" xmlns="http://www.w3.org/2000/svg">
<path d="M13.1761 5.70188C13.1761 7.88445 11.4068 9.65377 9.22425 9.65377V11.1538C12.2352 11.1538 14.6761 8.71288 14.6761 5.70188H13.1761ZM9.22425 9.65377C7.04168 9.65377 5.27236 7.88445 5.27236 5.70188H3.77236C3.77236 8.71288 6.21326 11.1538 9.22425 11.1538V9.65377ZM5.27236 5.70188C5.27236 3.51932 7.04168 1.75 9.22425 1.75V0.25C6.21326 0.25 3.77236 2.69089 3.77236 5.70188H5.27236ZM9.22425 1.75C11.4068 1.75 13.1761 3.51932 13.1761 5.70188H14.6761C14.6761 2.69089 12.2352 0.25 9.22425 0.25V1.75ZM5.69784 14.6802H12.7507V13.1802H5.69784V14.6802ZM5.69784 13.1802C2.76314 13.1802 0.37033 15.4986 0.250636 18.4043L1.74936 18.466C1.83609 16.3608 3.57089 14.6802 5.69784 14.6802V13.1802ZM12.7507 14.6802C14.8408 14.6802 16.5524 16.3032 16.6932 18.3571L18.1897 18.2546C17.9954 15.4193 15.6348 13.1802 12.7507 13.1802V14.6802Z" fill="white"/>
</svg>
