<svg width="22" height="22" viewBox="0 0 22 22" fill="none" xmlns="http://www.w3.org/2000/svg">
<circle cx="11" cy="11" r="10.5217" stroke="#73C5C5" stroke-width="0.956522"/>
<path d="M9.91556 13.0844C9.91556 12.6673 10.0056 12.2785 10.1858 11.9182C10.3659 11.5579 10.584 11.2498 10.84 10.9938C11.096 10.7378 11.352 10.496 11.608 10.2684C11.864 10.0314 12.0821 9.77541 12.2622 9.50044C12.4424 9.216 12.5324 8.91733 12.5324 8.60444C12.5324 8.13037 12.3665 7.77007 12.0347 7.52356C11.7123 7.26756 11.2904 7.13956 10.7689 7.13956C9.72593 7.13956 9.05748 7.59941 8.76356 8.51911L7.64 7.89333C7.87704 7.22963 8.28 6.72711 8.84889 6.38578C9.41778 6.03496 10.0625 5.85955 10.7831 5.85955C11.627 5.85955 12.3476 6.09659 12.9449 6.57067C13.5517 7.04474 13.8551 7.7037 13.8551 8.54755C13.8551 8.94578 13.765 9.3203 13.5849 9.67111C13.4047 10.0219 13.1867 10.3253 12.9307 10.5813C12.6747 10.8373 12.4187 11.0886 12.1627 11.3351C11.9067 11.5721 11.6886 11.8424 11.5084 12.1458C11.3283 12.4397 11.2382 12.7526 11.2382 13.0844H9.91556ZM10.5698 16.1564C10.3138 16.1564 10.0957 16.0664 9.91556 15.8862C9.73541 15.7061 9.64533 15.488 9.64533 15.232C9.64533 14.976 9.73541 14.7579 9.91556 14.5778C10.0957 14.3976 10.3138 14.3076 10.5698 14.3076C10.8353 14.3076 11.0533 14.3976 11.224 14.5778C11.4041 14.7579 11.4942 14.976 11.4942 15.232C11.4942 15.488 11.4041 15.7061 11.224 15.8862C11.0533 16.0664 10.8353 16.1564 10.5698 16.1564Z" fill="#73C5C5"/>
</svg>
