<svg width="20" height="20" viewBox="0 0 20 20" fill="none" xmlns="http://www.w3.org/2000/svg">
<path d="M0.800781 14V6C0.800781 4.67392 1.32757 3.40215 2.26525 2.46447C3.20293 1.52678 4.4747 1 5.80078 1H13.8008C15.1269 1 16.3986 1.52678 17.3363 2.46447C18.274 3.40215 18.8008 4.67392 18.8008 6V14C18.8008 15.3261 18.274 16.5979 17.3363 17.5355C16.3986 18.4732 15.1269 19 13.8008 19H5.80078C4.4747 19 3.20293 18.4732 2.26525 17.5355C1.32757 16.5979 0.800781 15.3261 0.800781 14Z" stroke="white"/>
<path d="M9.80078 14C10.8616 14 11.8791 13.5786 12.6292 12.8284C13.3794 12.0783 13.8008 11.0609 13.8008 10C13.8008 8.93913 13.3794 7.92172 12.6292 7.17157C11.8791 6.42143 10.8616 6 9.80078 6C8.73992 6 7.7225 6.42143 6.97235 7.17157C6.22221 7.92172 5.80078 8.93913 5.80078 10C5.80078 11.0609 6.22221 12.0783 6.97235 12.8284C7.7225 13.5786 8.73992 14 9.80078 14Z" stroke="white" stroke-linecap="round" stroke-linejoin="round"/>
<path d="M15.2998 4.51171L15.3122 4.49805" stroke="white" stroke-linecap="round" stroke-linejoin="round"/>
</svg>
