<svg width="16" height="16" viewBox="0 0 16 16" fill="none" xmlns="http://www.w3.org/2000/svg">
<path d="M2.60306 14.2573L2.30916 14.6618L2.60306 14.2573ZM1.74271 13.3969L1.3382 13.6908L1.74271 13.3969ZM14.2573 13.3969L13.8528 13.103L14.2573 13.3969ZM13.3969 14.2573L13.1031 13.8528L13.3969 14.2573ZM13.3969 1.74271L13.1031 2.14722L13.3969 1.74271ZM14.2573 2.60306L13.8528 2.89695L14.2573 2.60306ZM2.60306 1.74271L2.89695 2.14722L2.60306 1.74271ZM1.74271 2.60306L2.14722 2.89695L1.74271 2.60306ZM2.55823 14.0919L2.05866 14.0714L2.05823 14.0816V14.0919H2.55823ZM13.4371 14.0064L13.9368 13.9893L13.9365 13.9808L13.9359 13.9722L13.4371 14.0064ZM10.6111 5.66667C10.6111 7.10874 9.44208 8.27778 8 8.27778V9.27778C9.99436 9.27778 11.6111 7.66103 11.6111 5.66667H10.6111ZM8 8.27778C6.55792 8.27778 5.38889 7.10874 5.38889 5.66667H4.38889C4.38889 7.66103 6.00564 9.27778 8 9.27778V8.27778ZM5.38889 5.66667C5.38889 4.22459 6.55792 3.05556 8 3.05556V2.05556C6.00564 2.05556 4.38889 3.6723 4.38889 5.66667H5.38889ZM8 3.05556C9.44208 3.05556 10.6111 4.22459 10.6111 5.66667H11.6111C11.6111 3.6723 9.99436 2.05556 8 2.05556V3.05556ZM8 14.5C6.53063 14.5 5.46877 14.4993 4.64506 14.4101C3.8307 14.3218 3.30864 14.1519 2.89695 13.8528L2.30916 14.6618C2.91973 15.1054 3.63791 15.3068 4.53735 15.4043C5.42743 15.5007 6.55291 15.5 8 15.5V14.5ZM0.5 8C0.5 9.44709 0.499314 10.5726 0.595748 11.4627C0.693196 12.3621 0.8946 13.0803 1.3382 13.6908L2.14722 13.103C1.84811 12.6914 1.67816 12.1693 1.58993 11.3549C1.50069 10.5312 1.5 9.46937 1.5 8H0.5ZM14.5 8C14.5 9.46937 14.4993 10.5312 14.4101 11.3549C14.3218 12.1693 14.1519 12.6914 13.8528 13.103L14.6618 13.6908C15.1054 13.0803 15.3068 12.3621 15.4043 11.4627C15.5007 10.5726 15.5 9.44709 15.5 8H14.5ZM8 15.5C9.44709 15.5 10.5726 15.5007 11.4627 15.4043C12.3621 15.3068 13.0803 15.1054 13.6908 14.6618L13.1031 13.8528C12.6914 14.1519 12.1693 14.3218 11.3549 14.4101C10.5312 14.4993 9.46937 14.5 8 14.5V15.5ZM8 1.5C9.46937 1.5 10.5312 1.50069 11.3549 1.58993C12.1693 1.67816 12.6914 1.84811 13.1031 2.14722L13.6908 1.3382C13.0803 0.8946 12.3621 0.693196 11.4627 0.595748C10.5726 0.499314 9.44709 0.5 8 0.5V1.5ZM15.5 8C15.5 6.55291 15.5007 5.42743 15.4043 4.53735C15.3068 3.63791 15.1054 2.91973 14.6618 2.30916L13.8528 2.89695C14.1519 3.30864 14.3218 3.8307 14.4101 4.64506C14.4993 5.46877 14.5 6.53063 14.5 8H15.5ZM13.1031 2.14722C13.3907 2.35625 13.6438 2.60925 13.8528 2.89695L14.6618 2.30916C14.3911 1.93657 14.0634 1.60891 13.6908 1.3382L13.1031 2.14722ZM8 0.5C6.55291 0.5 5.42743 0.499314 4.53735 0.595748C3.63791 0.693196 2.91973 0.8946 2.30916 1.3382L2.89695 2.14722C3.30864 1.84811 3.8307 1.67816 4.64506 1.58993C5.46877 1.50069 6.53063 1.5 8 1.5V0.5ZM1.5 8C1.5 6.53063 1.50069 5.46877 1.58993 4.64506C1.67816 3.8307 1.84811 3.30864 2.14722 2.89695L1.3382 2.30916C0.8946 2.91973 0.693196 3.63791 0.595748 4.53735C0.499314 5.42743 0.5 6.55291 0.5 8H1.5ZM2.30916 1.3382C1.93657 1.60891 1.60891 1.93657 1.3382 2.30916L2.14722 2.89695C2.35625 2.60925 2.60925 2.35625 2.89695 2.14722L2.30916 1.3382ZM5.66667 11.6111H10.3333V10.6111H5.66667V11.6111ZM5.66667 10.6111C3.72284 10.6111 2.13794 12.1468 2.05866 14.0714L3.05781 14.1125C3.11511 12.7215 4.26134 11.6111 5.66667 11.6111V10.6111ZM2.89695 13.8528C2.88386 13.8433 2.87084 13.8337 2.85789 13.824L2.25858 14.6245C2.27534 14.637 2.2922 14.6495 2.30916 14.6618L2.89695 13.8528ZM2.85789 13.824C2.58632 13.6207 2.34673 13.3777 2.14722 13.103L1.3382 13.6908C1.59659 14.0465 1.90687 14.3612 2.25858 14.6245L2.85789 13.824ZM2.05823 14.0919V14.2242H3.05823V14.0919H2.05823ZM10.3333 11.6111C11.7143 11.6111 12.8453 12.6835 12.9382 14.0406L13.9359 13.9722C13.8072 12.0942 12.2437 10.6111 10.3333 10.6111V11.6111ZM13.8528 13.103C13.6538 13.3769 13.4151 13.6193 13.1444 13.8222L13.7444 14.6222C14.0949 14.3594 14.4042 14.0455 14.6618 13.6908L13.8528 13.103ZM13.1444 13.8222C13.1307 13.8325 13.1169 13.8427 13.1031 13.8528L13.6908 14.6618C13.7088 14.6487 13.7267 14.6355 13.7444 14.6222L13.1444 13.8222ZM12.9374 14.0235L12.9447 14.2393L13.9442 14.2052L13.9368 13.9893L12.9374 14.0235Z" fill="#73C5C5"/>
</svg>
