<svg width="152" height="54" viewBox="0 0 152 54" fill="none" xmlns="http://www.w3.org/2000/svg">
<g filter="url(#filter0_d_255_5977)">
<rect x="10" y="10" width="132" height="34" rx="16.596" fill="#121212"/>
<rect x="10.4" y="10.4" width="33.2" height="33.2" rx="16.196" fill="#121212" stroke="#0FFFFF" stroke-width="0.8"/>
<path d="M53.4541 20C54.5607 20 55.3807 20.2933 55.9141 20.88C56.4607 21.4667 56.7341 22.3267 56.7341 23.46V25.28C56.7341 26.4133 56.4607 27.2733 55.9141 27.86C55.3807 28.4467 54.5607 28.74 53.4541 28.74H52.4141V34H50.2141V20H53.4541ZM52.4141 22V26.74H53.4541C53.8007 26.74 54.0674 26.6467 54.2541 26.46C54.4407 26.2733 54.5341 25.9267 54.5341 25.42V23.32C54.5341 22.8133 54.4407 22.4667 54.2541 22.28C54.0674 22.0933 53.8007 22 53.4541 22H52.4141ZM59.7731 30.78C59.7731 31.2867 59.8731 31.6467 60.0731 31.86C60.2865 32.06 60.5665 32.16 60.9131 32.16C61.2598 32.16 61.5331 32.06 61.7331 31.86C61.9465 31.6467 62.0531 31.2867 62.0531 30.78V23.22C62.0531 22.7133 61.9465 22.36 61.7331 22.16C61.5331 21.9467 61.2598 21.84 60.9131 21.84C60.5665 21.84 60.2865 21.9467 60.0731 22.16C59.8731 22.36 59.7731 22.7133 59.7731 23.22V30.78ZM57.5731 23.36C57.5731 22.2267 57.8598 21.36 58.4331 20.76C59.0065 20.1467 59.8331 19.84 60.9131 19.84C61.9931 19.84 62.8198 20.1467 63.3931 20.76C63.9665 21.36 64.2531 22.2267 64.2531 23.36V30.64C64.2531 31.7733 63.9665 32.6467 63.3931 33.26C62.8198 33.86 61.9931 34.16 60.9131 34.16C59.8331 34.16 59.0065 33.86 58.4331 33.26C57.8598 32.6467 57.5731 31.7733 57.5731 30.64V23.36ZM65.6828 20H67.8828V34H65.6828V20ZM75.5914 20V21.96L71.4114 32H75.5914V34H69.1514V32.04L73.3314 22H69.3514V20H75.5914ZM78.9138 30.78C78.9138 31.2867 79.0138 31.6467 79.2138 31.86C79.4271 32.06 79.7071 32.16 80.0538 32.16C80.4004 32.16 80.6738 32.06 80.8738 31.86C81.0871 31.6467 81.1938 31.2867 81.1938 30.78V23.22C81.1938 22.7133 81.0871 22.36 80.8738 22.16C80.6738 21.9467 80.4004 21.84 80.0538 21.84C79.7071 21.84 79.4271 21.9467 79.2138 22.16C79.0138 22.36 78.9138 22.7133 78.9138 23.22V30.78ZM76.7138 23.36C76.7138 22.2267 77.0004 21.36 77.5738 20.76C78.1471 20.1467 78.9738 19.84 80.0538 19.84C81.1338 19.84 81.9604 20.1467 82.5338 20.76C83.1071 21.36 83.3938 22.2267 83.3938 23.36V30.64C83.3938 31.7733 83.1071 32.6467 82.5338 33.26C81.9604 33.86 81.1338 34.16 80.0538 34.16C78.9738 34.16 78.1471 33.86 77.5738 33.26C77.0004 32.6467 76.7138 31.7733 76.7138 30.64V23.36ZM86.7834 23.86V34H84.8034V20H87.5634L89.8234 28.38V20H91.7834V34H89.5234L86.7834 23.86Z" fill="white"/>
<path d="M93.0786 23.36C93.0786 22.2267 93.3453 21.36 93.8786 20.76C94.4253 20.1467 95.2386 19.84 96.3186 19.84C97.3986 19.84 98.2053 20.1467 98.7386 20.76C99.2853 21.36 99.5586 22.2267 99.5586 23.36V23.9H97.4786V23.22C97.4786 22.7133 97.3786 22.36 97.1786 22.16C96.9919 21.9467 96.7253 21.84 96.3786 21.84C96.0319 21.84 95.7586 21.9467 95.5586 22.16C95.3719 22.36 95.2786 22.7133 95.2786 23.22C95.2786 23.7 95.3853 24.1267 95.5986 24.5C95.8119 24.86 96.0786 25.2067 96.3986 25.54C96.7186 25.86 97.0586 26.1867 97.4186 26.52C97.7919 26.84 98.1386 27.1933 98.4586 27.58C98.7786 27.9667 99.0453 28.4067 99.2586 28.9C99.4719 29.3933 99.5786 29.9733 99.5786 30.64C99.5786 31.7733 99.2986 32.6467 98.7386 33.26C98.1919 33.86 97.3786 34.16 96.2986 34.16C95.2186 34.16 94.3986 33.86 93.8386 33.26C93.2919 32.6467 93.0186 31.7733 93.0186 30.64V29.68H95.0986V30.78C95.0986 31.2867 95.1986 31.64 95.3986 31.84C95.6119 32.04 95.8919 32.14 96.2386 32.14C96.5853 32.14 96.8586 32.04 97.0586 31.84C97.2719 31.64 97.3786 31.2867 97.3786 30.78C97.3786 30.3 97.2719 29.88 97.0586 29.52C96.8453 29.1467 96.5786 28.8 96.2586 28.48C95.9386 28.1467 95.5919 27.82 95.2186 27.5C94.8586 27.1667 94.5186 26.8067 94.1986 26.42C93.8786 26.0333 93.6119 25.5933 93.3986 25.1C93.1853 24.6067 93.0786 24.0267 93.0786 23.36ZM100.239 20H107.039V22H104.739V34H102.539V22H100.239V20ZM110.066 30.78C110.066 31.2867 110.166 31.6467 110.366 31.86C110.579 32.06 110.859 32.16 111.206 32.16C111.553 32.16 111.826 32.06 112.026 31.86C112.239 31.6467 112.346 31.2867 112.346 30.78V23.22C112.346 22.7133 112.239 22.36 112.026 22.16C111.826 21.9467 111.553 21.84 111.206 21.84C110.859 21.84 110.579 21.9467 110.366 22.16C110.166 22.36 110.066 22.7133 110.066 23.22V30.78ZM107.866 23.36C107.866 22.2267 108.153 21.36 108.726 20.76C109.299 20.1467 110.126 19.84 111.206 19.84C112.286 19.84 113.113 20.1467 113.686 20.76C114.259 21.36 114.546 22.2267 114.546 23.36V30.64C114.546 31.7733 114.259 32.6467 113.686 33.26C113.113 33.86 112.286 34.16 111.206 34.16C110.126 34.16 109.299 33.86 108.726 33.26C108.153 32.6467 107.866 31.7733 107.866 30.64V23.36ZM120.576 34C120.549 33.9067 120.522 33.82 120.496 33.74C120.469 33.66 120.442 33.56 120.416 33.44C120.402 33.32 120.389 33.1667 120.376 32.98C120.376 32.7933 120.376 32.56 120.376 32.28V30.08C120.376 29.4267 120.262 28.9667 120.036 28.7C119.809 28.4333 119.442 28.3 118.936 28.3H118.176V34H115.976V20H119.296C120.442 20 121.269 20.2667 121.776 20.8C122.296 21.3333 122.556 22.14 122.556 23.22V24.32C122.556 25.76 122.076 26.7067 121.116 27.16C121.676 27.3867 122.056 27.76 122.256 28.28C122.469 28.7867 122.576 29.4067 122.576 30.14V32.3C122.576 32.6467 122.589 32.9533 122.616 33.22C122.642 33.4733 122.709 33.7333 122.816 34H120.576ZM118.176 22V26.3H119.036C119.449 26.3 119.769 26.1933 119.996 25.98C120.236 25.7667 120.356 25.38 120.356 24.82V23.44C120.356 22.9333 120.262 22.5667 120.076 22.34C119.902 22.1133 119.622 22 119.236 22H118.176ZM126.223 25.9H129.243V27.9H126.223V32H130.023V34H124.023V20H130.023V22H126.223V25.9Z" fill="#0FFFFF"/>
<rect width="5.99005" height="1.57883" transform="matrix(0.769879 -0.63819 0.591637 0.806205 57.7266 28.6552)" fill="white"/>
<rect width="5.99005" height="1.57883" transform="matrix(0.769879 -0.63819 0.591637 0.806205 77.0996 28.6552)" fill="white"/>
<rect width="5.99005" height="1.57883" transform="matrix(0.769879 -0.63819 0.591637 0.806205 108.656 28.6552)" fill="#0FFFFF"/>
<path d="M24.3076 29.4036L30.349 26.8094V36.8155H24.3076V29.4036Z" fill="white"/>
<mask id="path-8-inside-1_255_5977" fill="white">
<path fill-rule="evenodd" clip-rule="evenodd" d="M25.9125 34.8113C25.5995 34.4774 25.443 33.914 25.443 33.1211V30.7629L29.0112 27.9799V33.1211C29.0112 33.914 28.8442 34.4774 28.5104 34.8113C28.1974 35.1242 27.7696 35.2807 27.2271 35.2807C26.6846 35.2807 26.2464 35.1242 25.9125 34.8113ZM29.0112 24.9953V21.2897C29.0112 20.4968 28.8442 19.9438 28.5104 19.6308C28.1974 19.2969 27.7696 19.13 27.2271 19.13C26.6846 19.13 26.2464 19.2969 25.9125 19.6308C25.5995 19.9438 25.443 20.4968 25.443 21.2897V27.7783L29.0112 24.9953ZM23.3459 17.4398C22.4486 18.3788 22 19.7351 22 21.5088V32.902C22 34.6756 22.4486 36.0424 23.3459 37.0022C24.2432 37.9412 25.5369 38.4107 27.2271 38.4107C28.9173 38.4107 30.211 37.9412 31.1083 37.0022C32.0055 36.0424 32.4542 34.6756 32.4542 32.902V21.5088C32.4542 19.7351 32.0055 18.3788 31.1083 17.4398C30.211 16.4799 28.9173 16 27.2271 16C25.5369 16 24.2432 16.4799 23.3459 17.4398Z"/>
</mask>
<path fill-rule="evenodd" clip-rule="evenodd" d="M25.9125 34.8113C25.5995 34.4774 25.443 33.914 25.443 33.1211V30.7629L29.0112 27.9799V33.1211C29.0112 33.914 28.8442 34.4774 28.5104 34.8113C28.1974 35.1242 27.7696 35.2807 27.2271 35.2807C26.6846 35.2807 26.2464 35.1242 25.9125 34.8113ZM29.0112 24.9953V21.2897C29.0112 20.4968 28.8442 19.9438 28.5104 19.6308C28.1974 19.2969 27.7696 19.13 27.2271 19.13C26.6846 19.13 26.2464 19.2969 25.9125 19.6308C25.5995 19.9438 25.443 20.4968 25.443 21.2897V27.7783L29.0112 24.9953ZM23.3459 17.4398C22.4486 18.3788 22 19.7351 22 21.5088V32.902C22 34.6756 22.4486 36.0424 23.3459 37.0022C24.2432 37.9412 25.5369 38.4107 27.2271 38.4107C28.9173 38.4107 30.211 37.9412 31.1083 37.0022C32.0055 36.0424 32.4542 34.6756 32.4542 32.902V21.5088C32.4542 19.7351 32.0055 18.3788 31.1083 17.4398C30.211 16.4799 28.9173 16 27.2271 16C25.5369 16 24.2432 16.4799 23.3459 17.4398Z" fill="#0FFFFF"/>
<path d="M25.9125 34.8113L25.7745 34.9406L25.7834 34.949L25.9125 34.8113ZM25.443 30.7629L25.3269 30.614L25.2542 30.6707V30.7629H25.443ZM29.0112 27.9799H29.2V27.5932L28.8951 27.831L29.0112 27.9799ZM28.5104 34.8113L28.6439 34.9447L28.5104 34.8113ZM29.0112 24.9953L29.1273 25.1441L29.2 25.0874V24.9953H29.0112ZM28.5104 19.6308L28.3724 19.7602L28.3813 19.7685L28.5104 19.6308ZM25.9125 19.6308L26.046 19.7643L26.046 19.7643L25.9125 19.6308ZM25.443 27.7783H25.2542V28.165L25.5591 27.9272L25.443 27.7783ZM23.3459 17.4398L23.4824 17.5702L23.4838 17.5687L23.3459 17.4398ZM23.3459 37.0022L23.208 37.1312L23.2094 37.1327L23.3459 37.0022ZM31.1083 37.0022L31.2448 37.1327L31.2462 37.1312L31.1083 37.0022ZM31.1083 17.4398L30.9703 17.5687L30.9718 17.5702L31.1083 17.4398ZM25.2542 33.1211C25.2542 33.9296 25.412 34.5535 25.7748 34.9404L26.0502 34.6821C25.7869 34.4013 25.6318 33.8984 25.6318 33.1211H25.2542ZM25.2542 30.7629V33.1211H25.6318V30.7629H25.2542ZM28.8951 27.831L25.3269 30.614L25.5591 30.9117L29.1273 28.1287L28.8951 27.831ZM29.2 33.1211V27.9799H28.8224V33.1211H29.2ZM28.6439 34.9447C29.0307 34.5579 29.2 33.932 29.2 33.1211H28.8224C28.8224 33.896 28.6578 34.3969 28.3769 34.6778L28.6439 34.9447ZM27.2271 35.4695C27.8077 35.4695 28.2878 35.3008 28.6439 34.9447L28.3769 34.6778C28.107 34.9477 27.7316 35.092 27.2271 35.092V35.4695ZM25.7834 34.949C26.1586 35.3007 26.6461 35.4695 27.2271 35.4695V35.092C26.7231 35.092 26.3341 34.9478 26.0416 34.6735L25.7834 34.949ZM29.2 24.9953V21.2897H28.8224V24.9953H29.2ZM29.2 21.2897C29.2 20.4805 29.0314 19.8605 28.6395 19.4931L28.3813 19.7685C28.657 20.0271 28.8224 20.5131 28.8224 21.2897H29.2ZM28.6481 19.5017C28.2928 19.1227 27.8113 18.9412 27.2271 18.9412V19.3188C27.7279 19.3188 28.1019 19.4712 28.3727 19.7599L28.6481 19.5017ZM27.2271 18.9412C26.6426 18.9412 26.1536 19.1227 25.779 19.4973L26.046 19.7643C26.3391 19.4712 26.7265 19.3188 27.2271 19.3188V18.9412ZM25.779 19.4973C25.4113 19.865 25.2542 20.4829 25.2542 21.2897H25.6318C25.6318 20.5106 25.7877 20.0226 26.046 19.7643L25.779 19.4973ZM25.2542 21.2897V27.7783H25.6318V21.2897H25.2542ZM25.5591 27.9272L29.1273 25.1441L28.8951 24.8464L25.3269 27.6294L25.5591 27.9272ZM22.1888 21.5088C22.1888 19.7656 22.6294 18.4629 23.4824 17.5702L23.2094 17.3094C22.2679 18.2947 21.8112 19.7046 21.8112 21.5088H22.1888ZM22.1888 32.902V21.5088H21.8112V32.902H22.1888ZM23.4838 36.8733C22.6293 35.9592 22.1888 34.6448 22.1888 32.902H21.8112C21.8112 34.7064 22.268 36.1256 23.208 37.1312L23.4838 36.8733ZM27.2271 38.2219C25.5721 38.2219 24.3342 37.7632 23.4824 36.8718L23.2094 37.1327C24.1522 38.1193 25.5016 38.5995 27.2271 38.5995V38.2219ZM30.9718 36.8718C30.12 37.7632 28.882 38.2219 27.2271 38.2219V38.5995C28.9525 38.5995 30.302 38.1193 31.2448 37.1327L30.9718 36.8718ZM32.2654 32.902C32.2654 34.6448 31.8249 35.9592 30.9704 36.8733L31.2462 37.1312C32.1862 36.1256 32.643 34.7064 32.643 32.902H32.2654ZM32.2654 21.5088V32.902H32.643V21.5088H32.2654ZM30.9718 17.5702C31.8248 18.4629 32.2654 19.7656 32.2654 21.5088H32.643C32.643 19.7046 32.1863 18.2947 31.2448 17.3094L30.9718 17.5702ZM27.2271 16.1888C28.8808 16.1888 30.1183 16.6572 30.9704 17.5687L31.2462 17.3109C30.3037 16.3026 28.9537 15.8112 27.2271 15.8112V16.1888ZM23.4838 17.5687C24.3358 16.6572 25.5733 16.1888 27.2271 16.1888V15.8112C25.5004 15.8112 24.1505 16.3026 23.208 17.3109L23.4838 17.5687Z" fill="#121212" mask="url(#path-8-inside-1_255_5977)"/>
</g>
<defs>
<filter id="filter0_d_255_5977" x="0" y="0" width="152" height="54" filterUnits="userSpaceOnUse" color-interpolation-filters="sRGB">
<feFlood flood-opacity="0" result="BackgroundImageFix"/>
<feColorMatrix in="SourceAlpha" type="matrix" values="0 0 0 0 0 0 0 0 0 0 0 0 0 0 0 0 0 0 127 0" result="hardAlpha"/>
<feOffset/>
<feGaussianBlur stdDeviation="5"/>
<feComposite in2="hardAlpha" operator="out"/>
<feColorMatrix type="matrix" values="0 0 0 0 0 0 0 0 0 0 0 0 0 0 0 0 0 0 0.15 0"/>
<feBlend mode="normal" in2="BackgroundImageFix" result="effect1_dropShadow_255_5977"/>
<feBlend mode="normal" in="SourceGraphic" in2="effect1_dropShadow_255_5977" result="shape"/>
</filter>
</defs>
</svg>
