<svg width="12" height="24" viewBox="0 0 12 24" fill="none" xmlns="http://www.w3.org/2000/svg">
<path d="M3.35645 13.4499L9.39783 10.8557V20.8617H3.35645V13.4499Z" fill="white"/>
<mask id="path-2-inside-1_182_2444" fill="white">
<path fill-rule="evenodd" clip-rule="evenodd" d="M4.93285 19.7858C4.61315 19.4447 4.45329 18.8693 4.45329 18.0593V14.8387L8.09795 11.996V18.0593C8.09795 18.8693 7.92744 19.4447 7.58641 19.7858C7.26671 20.1055 6.82978 20.2653 6.27562 20.2653C5.72146 20.2653 5.27387 20.1055 4.93285 19.7858ZM8.09795 9.01142V5.97445C8.09795 5.16452 7.92744 4.59971 7.58641 4.28C7.26671 3.93898 6.82978 3.76847 6.27562 3.76847C5.72146 3.76847 5.27387 3.93898 4.93285 4.28C4.61315 4.59971 4.45329 5.16452 4.45329 5.97445V11.8541L8.09795 9.01142ZM2.31126 2.04206C1.39477 3.00118 0.936523 4.38657 0.936523 6.19824V17.8356C0.936523 19.6472 1.39477 21.0433 2.31126 22.0237C3.22775 22.9828 4.54921 23.4624 6.27562 23.4624C8.00203 23.4624 9.32349 22.9828 10.24 22.0237C11.1565 21.0433 11.6147 19.6472 11.6147 17.8356V6.19824C11.6147 4.38657 11.1565 3.00118 10.24 2.04206C9.32349 1.06163 8.00203 0.571411 6.27562 0.571411C4.54921 0.571411 3.22775 1.06163 2.31126 2.04206Z"/>
</mask>
<path fill-rule="evenodd" clip-rule="evenodd" d="M4.93285 19.7858C4.61315 19.4447 4.45329 18.8693 4.45329 18.0593V14.8387L8.09795 11.996V18.0593C8.09795 18.8693 7.92744 19.4447 7.58641 19.7858C7.26671 20.1055 6.82978 20.2653 6.27562 20.2653C5.72146 20.2653 5.27387 20.1055 4.93285 19.7858ZM8.09795 9.01142V5.97445C8.09795 5.16452 7.92744 4.59971 7.58641 4.28C7.26671 3.93898 6.82978 3.76847 6.27562 3.76847C5.72146 3.76847 5.27387 3.93898 4.93285 4.28C4.61315 4.59971 4.45329 5.16452 4.45329 5.97445V11.8541L8.09795 9.01142ZM2.31126 2.04206C1.39477 3.00118 0.936523 4.38657 0.936523 6.19824V17.8356C0.936523 19.6472 1.39477 21.0433 2.31126 22.0237C3.22775 22.9828 4.54921 23.4624 6.27562 23.4624C8.00203 23.4624 9.32349 22.9828 10.24 22.0237C11.1565 21.0433 11.6147 19.6472 11.6147 17.8356V6.19824C11.6147 4.38657 11.1565 3.00118 10.24 2.04206C9.32349 1.06163 8.00203 0.571411 6.27562 0.571411C4.54921 0.571411 3.22775 1.06163 2.31126 2.04206Z" fill="#0FFFFF"/>
<path d="M4.93285 19.7858L4.79188 19.9179L4.80096 19.9264L4.93285 19.7858ZM4.45329 14.8387L4.3347 14.6866L4.26045 14.7445V14.8387H4.45329ZM8.09795 11.996H8.29078V11.601L7.97935 11.8439L8.09795 11.996ZM7.58641 19.7858L7.45006 19.6494H7.45006L7.58641 19.7858ZM8.09795 9.01142L8.21654 9.16347L8.29078 9.10557V9.01142H8.09795ZM7.58641 4.28L7.44544 4.41217L7.45452 4.42069L7.58641 4.28ZM4.93285 4.28L5.06921 4.41636L5.06921 4.41636L4.93285 4.28ZM4.45329 11.8541H4.26045V12.249L4.57189 12.0061L4.45329 11.8541ZM2.31126 2.04206L2.45069 2.17529L2.45213 2.17375L2.31126 2.04206ZM2.31126 22.0237L2.17038 22.1554L2.17184 22.1569L2.31126 22.0237ZM10.24 22.0237L10.3794 22.1569L10.3809 22.1554L10.24 22.0237ZM10.24 2.04206L10.0991 2.17375L10.1006 2.17528L10.24 2.04206ZM4.26045 18.0593C4.26045 18.8852 4.42168 19.5225 4.79217 19.9177L5.07354 19.6539C4.80461 19.367 4.64613 18.8533 4.64613 18.0593H4.26045ZM4.26045 14.8387V18.0593H4.64613V14.8387H4.26045ZM7.97935 11.8439L4.3347 14.6866L4.57189 14.9907L8.21654 12.1481L7.97935 11.8439ZM8.29078 18.0593V11.996H7.90511V18.0593H8.29078ZM7.72277 19.9221C8.11791 19.527 8.29078 18.8877 8.29078 18.0593H7.90511C7.90511 18.8509 7.73696 19.3625 7.45006 19.6494L7.72277 19.9221ZM6.27562 20.4582C6.86865 20.4582 7.35906 20.2858 7.72277 19.9221L7.45006 19.6494C7.17435 19.9251 6.7909 20.0725 6.27562 20.0725V20.4582ZM4.80096 19.9264C5.1842 20.2857 5.68214 20.4582 6.27562 20.4582V20.0725C5.76079 20.0725 5.36354 19.9252 5.06474 19.6451L4.80096 19.9264ZM8.29078 9.01142V5.97445H7.90511V9.01142H8.29078ZM8.29078 5.97445C8.29078 5.14787 8.11865 4.51464 7.71831 4.13932L7.45452 4.42069C7.73622 4.68478 7.90511 5.18118 7.90511 5.97445H8.29078ZM7.7271 4.14811C7.36419 3.76101 6.87235 3.57563 6.27562 3.57563V3.96131C6.78721 3.96131 7.16923 4.11695 7.44573 4.41189L7.7271 4.14811ZM6.27562 3.57563C5.67859 3.57563 5.17913 3.76101 4.79649 4.14365L5.06921 4.41636C5.36861 4.11696 5.76434 3.96131 6.27562 3.96131V3.57563ZM4.7965 4.14365C4.42092 4.51923 4.26045 5.15042 4.26045 5.97445H4.64613C4.64613 5.17863 4.80538 4.68019 5.06921 4.41636L4.7965 4.14365ZM4.26045 5.97445V11.8541H4.64613V5.97445H4.26045ZM4.57189 12.0061L8.21654 9.16347L7.97935 8.85936L4.3347 11.702L4.57189 12.0061ZM1.12936 6.19824C1.12936 4.41774 1.5794 3.08709 2.45068 2.17528L2.17184 1.90883C1.21014 2.91527 0.743685 4.3554 0.743685 6.19824H1.12936ZM1.12936 17.8356V6.19824H0.743685V17.8356H1.12936ZM2.45213 21.892C1.57928 20.9583 1.12936 19.6157 1.12936 17.8356H0.743685C0.743685 19.6787 1.21026 21.1283 2.17039 22.1554L2.45213 21.892ZM6.27562 23.2695C4.58521 23.2695 3.3207 22.801 2.45068 21.8905L2.17184 22.1569C3.13481 23.1647 4.5132 23.6552 6.27562 23.6552V23.2695ZM10.1006 21.8905C9.23054 22.801 7.96603 23.2695 6.27562 23.2695V23.6552C8.03804 23.6552 9.41643 23.1647 10.3794 22.1569L10.1006 21.8905ZM11.4219 17.8356C11.4219 19.6157 10.972 20.9583 10.0991 21.892L10.3809 22.1554C11.341 21.1283 11.8076 19.6787 11.8076 17.8356H11.4219ZM11.4219 6.19824V17.8356H11.8076V6.19824H11.4219ZM10.1006 2.17528C10.9718 3.08709 11.4219 4.41774 11.4219 6.19824H11.8076C11.8076 4.3554 11.3411 2.91527 10.3794 1.90883L10.1006 2.17528ZM6.27562 0.76425C7.9648 0.76425 9.22882 1.24274 10.0991 2.17375L10.3809 1.91037C9.41815 0.88051 8.03926 0.378572 6.27562 0.378572V0.76425ZM2.45213 2.17375C3.32242 1.24274 4.58644 0.76425 6.27562 0.76425V0.378572C4.51198 0.378572 3.13309 0.88051 2.17039 1.91037L2.45213 2.17375Z" fill="#121212" mask="url(#path-2-inside-1_182_2444)"/>
</svg>
