<svg width="20" height="22" viewBox="0 0 20 22" fill="none" xmlns="http://www.w3.org/2000/svg">
<path d="M16 7.23848C16 5.67536 15.3679 4.17626 14.2426 3.07097C13.1174 1.96567 11.5913 1.34473 10 1.34473C8.4087 1.34473 6.88258 1.96567 5.75736 3.07097C4.63214 4.17626 4 5.67536 4 7.23848C4 14.1145 1 16.0791 1 16.0791H19C19 16.0791 16 14.1145 16 7.23848Z" stroke="#0FFFFF" stroke-width="1.5" stroke-linecap="round" stroke-linejoin="round"/>
<path d="M11.7295 20.0083C11.5537 20.306 11.3014 20.5531 10.9978 20.7249C10.6941 20.8967 10.3499 20.9871 9.99953 20.9871C9.64915 20.9871 9.30492 20.8967 9.0013 20.7249C8.69769 20.5531 8.44534 20.306 8.26953 20.0083" stroke="#0FFFFF" stroke-width="1.5" stroke-linecap="round" stroke-linejoin="round"/>
</svg>
